<svg width="41" height="41" viewBox="0 0 41 41" fill="none" xmlns="http://www.w3.org/2000/svg">
<path fill-rule="evenodd" clip-rule="evenodd" d="M20.6707 40.2815C9.65515 40.2815 0.724487 31.3509 0.724487 20.3353C0.724487 9.31977 9.65515 0.389099 20.6707 0.389099C31.6863 0.389099 40.6169 9.31977 40.6169 20.3353C40.6169 31.3509 31.6863 40.2815 20.6707 40.2815Z" fill="#DC4E41"/>
<path fill-rule="evenodd" clip-rule="evenodd" d="M13.8789 27.4316C16.5386 28.3706 19.8095 27.6691 21.5799 25.2773C22.872 23.6007 23.1661 21.3669 23.026 19.2807C20.7476 19.2584 18.4688 19.2665 16.1951 19.2693C16.1904 20.1212 16.1951 20.9698 16.1978 21.8212C17.5613 21.8609 18.9259 21.8435 20.2905 21.8719C19.9466 23.1116 19.161 24.2641 17.9712 24.7119C15.6716 25.7741 12.74 24.3857 12.0162 21.8545C11.1434 19.4294 12.5729 16.5038 14.9327 15.7995C16.3954 15.2597 17.9033 15.8676 19.1552 16.6655C19.7883 16.0435 20.3824 15.3768 20.9661 14.7041C19.5424 13.4551 17.7149 12.6887 15.8361 12.8565C12.149 12.9027 8.92213 16.4755 9.06226 20.3428C9.0005 23.4727 11.0542 26.4582 13.8789 27.4316Z" fill="white"/>
<path fill-rule="evenodd" clip-rule="evenodd" d="M28.052 18.8271C27.3845 18.8332 26.7212 18.8373 26.0579 18.8403V20.8268C26.7212 20.8298 27.3886 20.8324 28.052 20.84C28.058 21.5031 28.058 22.1663 28.0652 22.8336C28.7255 22.8336 29.3888 22.829 30.0521 22.8336C30.0551 22.1663 30.0581 21.5031 30.0653 20.837C30.7286 20.8339 31.3949 20.8298 32.0579 20.8268V18.8403C31.3949 18.8373 30.7286 18.8343 30.0653 18.8271C30.0608 18.164 30.0551 17.4982 30.0521 16.8351C29.3888 16.8336 28.7285 16.8336 28.0682 16.8336C28.0625 17.4982 28.055 18.164 28.052 18.8271Z" fill="white"/>
<path fill-rule="evenodd" clip-rule="evenodd" d="M15.8363 12.8565C17.7152 12.6887 19.5428 13.4551 20.9665 14.7041C20.3828 15.3768 19.7887 16.0435 19.1556 16.6655C17.9021 15.8676 16.3957 15.2581 14.9314 15.7995C12.5715 16.5038 11.1419 19.4294 12.0163 21.8528C12.7386 24.3857 15.6718 25.7741 17.9716 24.7103C19.1614 24.2641 19.9454 23.1116 20.2909 21.8719C18.9263 21.8435 17.5616 21.8609 16.198 21.8212C16.1938 20.9698 16.1907 20.1212 16.1938 19.2693C18.4692 19.2649 20.748 19.2584 23.0265 19.279C23.1651 21.3669 22.8725 23.6007 21.5788 25.2773C19.8099 27.6691 16.5389 28.3706 13.8775 27.4316C11.0543 26.4582 9.00049 23.4727 9.06226 20.3428C8.92213 16.4755 12.1491 12.9027 15.8363 12.8565Z" fill="white"/>
<path fill-rule="evenodd" clip-rule="evenodd" d="M30.0521 16.8336C30.0551 17.4984 30.0608 18.1643 30.0653 18.8276C30.7286 18.8337 31.3949 18.8378 32.0579 18.8409V20.8278C31.3949 20.8308 30.7286 20.8334 30.0653 20.838C30.0581 21.5043 30.0551 22.1676 30.0521 22.8336C29.3888 22.8305 28.7243 22.8336 28.0652 22.8336C28.058 22.1676 28.058 21.5043 28.052 20.841C27.3886 20.8334 26.7212 20.8308 26.0579 20.8278V18.8409C26.7212 18.8363 27.3845 18.8337 28.052 18.8276C28.055 18.1643 28.061 17.4984 28.0682 16.8336H30.0521Z" fill="white"/>
</svg>
