<svg width="25" height="25" viewBox="0 0 25 25" fill="none" xmlns="http://www.w3.org/2000/svg">
<path d="M16.6763 14.6808H15.8863L15.6063 14.4108C16.5863 13.2708 17.1763 11.7908 17.1763 10.1808C17.1763 6.59082 14.2663 3.68082 10.6763 3.68082C7.08627 3.68082 4.17627 6.59082 4.17627 10.1808C4.17627 13.7708 7.08627 16.6808 10.6763 16.6808C12.2863 16.6808 13.7663 16.0908 14.9063 15.1108L15.1763 15.3908V16.1808L20.1763 21.1708L21.6663 19.6808L16.6763 14.6808ZM10.6763 14.6808C8.18627 14.6808 6.17627 12.6708 6.17627 10.1808C6.17627 7.69082 8.18627 5.68082 10.6763 5.68082C13.1663 5.68082 15.1763 7.69082 15.1763 10.1808C15.1763 12.6708 13.1663 14.6808 10.6763 14.6808Z" fill="white"/>
</svg>
