<svg width="63" height="55" viewBox="0 0 63 55" fill="none" xmlns="http://www.w3.org/2000/svg">
<path d="M31.6369 54.209C31.6053 54.2279 31.5758 54.2455 31.5485 54.2618C31.5209 54.2451 31.4911 54.2271 31.4591 54.2076C31.2348 54.0713 30.9049 53.8685 30.4845 53.6038C29.6437 53.0743 28.4412 52.2973 26.9977 51.309C24.1098 49.3317 20.2616 46.5117 16.4157 43.1387C12.5676 39.7638 8.73547 35.847 5.86871 31.6783C2.99882 27.5051 1.12524 23.1212 1.12524 18.8017C1.12524 9.14305 8.46212 1.36851 17.4465 1.36852L17.4507 1.36849C22.9518 1.32275 28.1092 4.27232 31.1197 9.21598L31.5442 9.91317L31.9724 9.2182C35.0041 4.29756 40.1494 1.35457 45.6448 1.3685C54.612 1.41542 61.9236 9.16352 61.968 18.8031C61.9676 23.1895 60.093 27.6062 57.2242 31.7901C54.3578 35.9705 50.5262 39.8786 46.6786 43.2368C42.8331 46.593 38.9853 49.3881 36.0977 51.3447C34.6543 52.3227 33.452 53.0904 32.6113 53.6131C32.191 53.8745 31.8612 54.0745 31.6369 54.209Z" fill="#05D8E8" stroke="white"/>
</svg>
