<svg width="127" height="127" viewBox="0 0 127 127" fill="none" xmlns="http://www.w3.org/2000/svg">
<path d="M52.9151 24.8887C59.1461 21.2503 66.8539 21.2503 73.0849 24.8887L91.19 35.4604C97.3301 39.0457 101.105 45.6214 101.105 52.7317V74.2683C101.105 81.3786 97.3301 87.9543 91.19 91.5396L73.0849 102.111C66.8539 105.75 59.1461 105.75 52.9151 102.111L34.81 91.5396C28.6699 87.9543 24.8949 81.3786 24.8949 74.2683V52.7317C24.8949 45.6214 28.6699 39.0457 34.81 35.4604L52.9151 24.8887Z" fill="#FF296D"/>
<path d="M78.5 66.0981C80.5 64.9434 80.5 62.0566 78.5 60.9019L59.75 50.0766C57.75 48.9219 55.25 50.3653 55.25 52.6747V74.3253C55.25 76.6347 57.75 78.0781 59.75 76.9234L78.5 66.0981Z" fill="#01012A"/>
<path d="M73.25 6.20652L108.243 26.4095C114.276 29.8929 117.993 36.3303 117.993 43.297V83.703C117.993 90.6697 114.276 97.1071 108.243 100.59L73.25 120.793C67.2167 124.277 59.7833 124.277 53.75 120.793L18.7574 100.59C12.7241 97.1071 9.00739 90.6697 9.00739 83.703V43.297C9.00739 36.3303 12.7241 29.8928 18.7574 26.4095L53.75 6.20651C59.7833 2.72318 67.2167 2.72318 73.25 6.20652Z" stroke="#FF296D"/>
<path d="M73.25 14.2065L101.314 30.4095C107.348 33.8929 111.064 40.3303 111.064 47.297V79.703C111.064 86.6697 107.348 93.1071 101.314 96.5905L73.25 112.793C67.2167 116.277 59.7833 116.277 53.75 112.793L25.6856 96.5905C19.6523 93.1071 15.9356 86.6697 15.9356 79.703V47.297C15.9356 40.3303 19.6523 33.8928 25.6856 30.4095L53.75 14.2065C59.7833 10.7232 67.2167 10.7232 73.25 14.2065Z" stroke="#05D8E8"/>
</svg>
