<svg width="26" height="25" viewBox="0 0 26 25" fill="none" xmlns="http://www.w3.org/2000/svg">
<g clip-path="url(#clip0_9429_232)">
<path d="M23.4937 12.5006C23.4937 11.209 23.2282 9.93011 22.7122 8.73684C22.1962 7.54357 21.44 6.45934 20.4866 5.54605C19.5332 4.63277 18.4014 3.90831 17.1558 3.41404C15.9102 2.91977 14.5751 2.66537 13.2268 2.66537C10.5039 2.66537 7.89247 3.70159 5.96706 5.54605C4.04165 7.39052 2.95996 9.89216 2.95996 12.5006C2.95996 15.1091 4.04165 17.6107 5.96706 19.4552C7.89247 21.2997 10.5039 22.3359 13.2268 22.3359C15.9498 22.3359 18.5612 21.2997 20.4866 19.4552C22.412 17.6107 23.4937 15.1091 23.4937 12.5006ZM21.3685 11.5171H18.3603C18.1909 9.20399 17.3636 6.97946 15.9681 5.08485C17.4018 5.57264 18.6659 6.43235 19.6195 7.56809C20.573 8.70384 21.1785 10.071 21.3685 11.5171ZM10.2289 13.4842H16.3069C16.0442 15.914 14.963 18.196 13.2268 19.9853C11.4918 18.2035 10.4355 15.9128 10.2289 13.4842ZM10.2289 11.5171C10.468 9.09943 11.5201 6.82147 13.2268 5.02584C14.977 6.8022 16.0606 9.08587 16.3069 11.5171H10.2289ZM10.5985 5.05534C9.1956 6.96045 8.355 9.19276 8.16527 11.5171H5.0852C5.27915 10.0531 5.89897 8.6709 6.87386 7.52829C7.84876 6.38568 9.13945 5.52874 10.5985 5.05534ZM5.0852 13.4842H8.16527C8.33435 15.8065 9.16924 18.0391 10.578 19.9361C9.12417 19.4604 7.83877 18.6036 6.86781 17.4631C5.89685 16.3226 5.27926 14.9441 5.0852 13.4842ZM15.9168 19.9262C17.3217 18.0287 18.1659 15.8031 18.3603 13.4842H21.389C21.1948 14.94 20.5795 16.3148 19.6125 17.4532C18.6454 18.5916 17.3653 19.4482 15.9168 19.9262Z" fill="#92929D"/>
</g>
<defs>
<clipPath id="clip0_9429_232">
<rect width="24.6405" height="23.6046" fill="white" transform="translate(0.906738 0.698318)"/>
</clipPath>
</defs>
</svg>
