<svg width="48" height="48" viewBox="0 0 48 48" fill="none" xmlns="http://www.w3.org/2000/svg">
<path d="M19 2.88675C22.094 1.10042 25.906 1.10042 29 2.88675L39.7846 9.11325C42.8786 10.8996 44.7846 14.2008 44.7846 17.7735V30.2265C44.7846 33.7992 42.8786 37.1004 39.7846 38.8868L29 45.1132C25.906 46.8996 22.094 46.8996 19 45.1132L8.21539 38.8868C5.12138 37.1004 3.21539 33.7992 3.21539 30.2265V17.7735C3.21539 14.2008 5.12138 10.8996 8.21539 9.11325L19 2.88675Z" fill="#05D8E8" fill-opacity="0.2"/>
<path d="M16.5 25.2272C15.8333 24.8423 15.8333 23.8801 16.5 23.4952L26.25 17.866C26.9167 17.4811 27.75 17.9622 27.75 18.732V29.9904C27.75 30.7602 26.9167 31.2413 26.25 30.8564L16.5 25.2272Z" fill="#01012A"/>
</svg>
