<svg width="94" height="24" viewBox="0 0 94 24" fill="none" xmlns="http://www.w3.org/2000/svg">
<path d="M56.622 23.3055C53.0991 23.3055 51.6396 19.177 50.1801 15.1492C49.0729 12.1284 47.8651 8.70479 46.1036 8.70479C44.3422 8.70479 43.3356 10.1649 41.9265 12.6319C40.5173 15.0485 38.9069 17.7673 35.5853 17.7673C32.0624 17.7673 30.5525 13.6388 29.1434 9.61104C28.0362 6.5902 26.8283 3.16659 25.0669 3.16659C23.3054 3.16659 22.0976 6.5902 20.9904 9.61104C19.5309 13.5885 18.0714 17.7673 14.5485 17.7673C11.1766 17.7673 9.61646 15.0485 8.2073 12.6319C6.79814 10.2152 5.7916 8.70479 4.03015 8.70479C3.32557 8.70479 2.77197 8.15097 2.77197 7.44611C2.77197 6.74125 3.32557 6.18743 4.03015 6.18743C7.40207 6.18743 8.96221 8.90618 10.3714 11.3228C11.7805 13.7395 12.7871 15.2499 14.5485 15.2499C16.31 15.2499 17.5178 11.8263 18.625 8.80548C20.0845 4.82805 21.544 0.649231 25.0669 0.649231C28.5898 0.649231 30.0493 4.7777 31.5088 8.80548C32.616 11.8263 33.8238 15.2499 35.5853 15.2499C37.3467 15.2499 38.3533 13.7899 39.7624 11.3228C41.1716 8.90618 42.782 6.18743 46.1036 6.18743C49.6265 6.18743 51.086 10.3159 52.5455 14.3437C53.6527 17.3645 54.8605 20.7881 56.622 20.7881C58.3834 20.7881 59.5913 17.3645 60.6985 14.3437C62.158 10.3662 63.6175 6.18743 67.1404 6.18743C70.5123 6.18743 72.0724 8.90618 73.4816 11.3228C74.8907 13.7395 75.8973 15.2499 77.6587 15.2499C79.4202 15.2499 80.4267 13.7899 81.8359 11.3228C83.245 8.90618 84.8555 6.18743 88.1771 6.18743C88.8817 6.18743 89.4353 6.74125 89.4353 7.44611C89.4353 8.15097 88.8817 8.70479 88.1771 8.70479C86.4157 8.70479 85.4091 10.1649 84 12.6319C82.5908 15.0485 80.9803 17.7673 77.6587 17.7673C74.3371 17.7673 72.7267 15.0485 71.3175 12.6319C69.9084 10.2152 68.9018 8.70479 67.1404 8.70479C65.3789 8.70479 64.1711 12.1284 63.0639 15.1492C61.6044 19.177 60.1449 23.3055 56.622 23.3055Z" fill="white"/>
<path d="M93.9143 7.4461C93.9143 9.71172 92.0522 11.5746 89.7875 11.5746C87.5227 11.5746 85.6606 9.71172 85.6606 7.4461C85.6606 5.18047 87.5227 3.31763 89.7875 3.31763C92.0522 3.31763 93.9143 5.18047 93.9143 7.4461Z" fill="#8715CC"/>
<path d="M8.25755 7.4461C8.25755 9.71172 6.39545 11.5746 4.13073 11.5746C1.86601 11.5746 0.00390625 9.71172 0.00390625 7.4461C0.00390625 5.18047 1.86601 3.31763 4.13073 3.31763C6.44578 3.31763 8.25755 5.18047 8.25755 7.4461Z" fill="#8715CC"/>
</svg>
