<svg width="113" height="143" viewBox="0 0 113 143" fill="none" xmlns="http://www.w3.org/2000/svg">
<g filter="url(#filter0_d_9468_989)">
<rect x="55.3193" y="38.4258" width="32" height="32" rx="16" fill="#1F1D2B"/>
</g>
<path d="M72.631 54.4229L67.5368 59.6605C67.3965 59.8043 67.3193 59.9967 67.3193 60.2018C67.3193 60.407 67.3965 60.5993 67.5368 60.7434L67.9832 61.2021C68.1232 61.3464 68.3104 61.4258 68.5099 61.4258C68.7094 61.4258 68.8964 61.3464 69.0366 61.2021L75.1021 54.9662C75.2428 54.8217 75.3199 54.6285 75.3193 54.4232C75.3199 54.217 75.2429 54.024 75.1021 53.8794L69.0422 47.6496C68.9021 47.5053 68.7151 47.4258 68.5155 47.4258C68.316 47.4258 68.129 47.5053 67.9887 47.6496L67.5424 48.1083C67.252 48.4069 67.252 48.8929 67.5424 49.1913L72.631 54.4229Z" fill="#12CDD9"/>
<defs>
<filter id="filter0_d_9468_989" x="0.319336" y="0.425827" width="142" height="142" filterUnits="userSpaceOnUse" color-interpolation-filters="sRGB">
<feFlood flood-opacity="0" result="BackgroundImageFix"/>
<feColorMatrix in="SourceAlpha" type="matrix" values="0 0 0 0 0 0 0 0 0 0 0 0 0 0 0 0 0 0 127 0" result="hardAlpha"/>
<feOffset dy="17"/>
<feGaussianBlur stdDeviation="27.5"/>
<feColorMatrix type="matrix" values="0 0 0 0 0 0 0 0 0 0 0 0 0 0 0 0 0 0 0.16 0"/>
<feBlend mode="normal" in2="BackgroundImageFix" result="effect1_dropShadow_9468_989"/>
<feBlend mode="normal" in="SourceGraphic" in2="effect1_dropShadow_9468_989" result="shape"/>
</filter>
</defs>
</svg>
