<svg width="15" height="13" viewBox="0 0 15 13" fill="none" xmlns="http://www.w3.org/2000/svg">
<path d="M7.56333 11.6017C7.54183 11.6143 7.52137 11.6262 7.50198 11.6374C7.48231 11.6259 7.46153 11.6136 7.43969 11.6007C7.24393 11.4851 6.963 11.3148 6.62536 11.098C5.94911 10.6637 5.05007 10.0456 4.15351 9.308C3.25448 8.5684 2.37285 7.72081 1.71977 6.83002C1.06259 5.93362 0.671387 5.04067 0.671387 4.19989C0.671387 2.27412 2.23253 0.71295 4.15833 0.712965L4.16223 0.712935C5.3394 0.703755 6.43993 1.29584 7.08095 2.28322L7.49787 2.92544L7.91823 2.28546C8.56443 1.30166 9.6634 0.710307 10.8405 0.712947C12.763 0.722638 14.3192 2.27864 14.3292 4.20114C14.3288 5.05764 13.9364 5.95793 13.2804 6.85531C12.6277 7.7482 11.7466 8.59358 10.848 9.32922C9.9519 10.0629 9.05325 10.6754 8.37726 11.105C8.03977 11.3195 7.75898 11.4876 7.56333 11.6017Z" stroke="white"/>
</svg>
