<svg width="94" height="24" viewBox="0 0 94 24" fill="none" xmlns="http://www.w3.org/2000/svg">
<path d="M56.6647 23.4999C53.1418 23.4999 51.6823 19.3714 50.2229 15.3436C49.1157 12.3228 47.9078 8.8992 46.1464 8.8992C44.3849 8.8992 43.3784 10.3593 41.9692 12.8263C40.56 15.243 38.9496 17.9617 35.628 17.9617C32.1051 17.9617 30.5953 13.8332 29.1861 9.80545C28.0789 6.78462 26.8711 3.361 25.1096 3.361C23.3482 3.361 22.1403 6.78462 21.0331 9.80545C19.5736 13.7829 18.1141 17.9617 14.5912 17.9617C11.2193 17.9617 9.65919 15.243 8.25003 12.8263C6.84087 10.4096 5.83432 8.8992 4.07288 8.8992C3.3683 8.8992 2.8147 8.34538 2.8147 7.64052C2.8147 6.93566 3.3683 6.38184 4.07288 6.38184C7.44479 6.38184 9.00493 9.10059 10.4141 11.5173C11.8233 13.9339 12.8298 15.4443 14.5912 15.4443C16.3527 15.4443 17.5605 12.0207 18.6677 8.99989C20.1272 5.02246 21.5867 0.843643 25.1096 0.843643C28.6325 0.843643 30.092 4.97212 31.5515 8.99989C32.6587 12.0207 33.8665 15.4443 35.628 15.4443C37.3894 15.4443 38.396 13.9843 39.8051 11.5173C41.2143 9.10059 42.8248 6.38184 46.1464 6.38184C49.6693 6.38184 51.1287 10.5103 52.5882 14.5381C53.6954 17.5589 54.9033 20.9825 56.6647 20.9825C58.4262 20.9825 59.634 17.5589 60.7412 14.5381C62.2007 10.5607 63.6602 6.38184 67.1831 6.38184C70.555 6.38184 72.1152 9.10059 73.5243 11.5173C74.9335 13.9339 75.94 15.4443 77.7015 15.4443C79.4629 15.4443 80.4695 13.9843 81.8786 11.5173C83.2878 9.10059 84.8982 6.38184 88.2198 6.38184C88.9244 6.38184 89.478 6.93566 89.478 7.64052C89.478 8.34538 88.9244 8.8992 88.2198 8.8992C86.4584 8.8992 85.4518 10.3593 84.0427 12.8263C82.6335 15.243 81.023 17.9617 77.7015 17.9617C74.3799 17.9617 72.7694 15.243 71.3602 12.8263C69.9511 10.4096 68.9445 8.8992 67.1831 8.8992C65.4216 8.8992 64.2138 12.3228 63.1066 15.3436C61.6471 19.3714 60.1876 23.4999 56.6647 23.4999Z" fill="white"/>
<path d="M93.957 7.64051C93.957 9.90614 92.0949 11.769 89.8302 11.769C87.5655 11.769 85.7034 9.90614 85.7034 7.64051C85.7034 5.37489 87.5655 3.51204 89.8302 3.51204C92.0949 3.51204 93.957 5.37489 93.957 7.64051Z" fill="#178ADD"/>
<path d="M8.30028 7.64051C8.30028 9.90614 6.43818 11.769 4.17346 11.769C1.90873 11.769 0.0466309 9.90614 0.0466309 7.64051C0.0466309 5.37489 1.90873 3.51204 4.17346 3.51204C6.4885 3.51204 8.30028 5.37489 8.30028 7.64051Z" fill="#178ADD"/>
</svg>
