<svg width="59" height="59" viewBox="0 0 59 59" fill="none" xmlns="http://www.w3.org/2000/svg">
<path d="M25.0148 16.106C23.5505 16.106 22.1462 16.7156 21.1108 17.8008C20.0754 18.8859 19.4938 20.3577 19.4938 21.8923V37.3224C19.4942 38.3512 19.7564 39.3612 20.2533 40.2485C20.7501 41.1358 21.4637 41.8682 22.3206 42.3702C23.1774 42.8723 24.1464 43.1258 25.1279 43.1048C26.1093 43.0837 27.0676 42.7888 27.9041 42.2504L39.8662 34.5353C40.6693 34.0174 41.3324 33.2926 41.7923 32.4299C42.2523 31.5673 42.4938 30.5955 42.4938 29.6073C42.4938 28.6191 42.2523 27.6474 41.7923 26.7847C41.3324 25.9221 40.6693 25.1972 39.8662 24.6793L27.9041 16.9643C27.0352 16.4039 26.035 16.1068 25.0148 16.106ZM25.0148 37.3224V21.8923L36.9769 29.6073L25.0148 37.3224Z" fill="#FF296D"/>
<path d="M53.6832 18.9298C55.0324 18.1509 55.4946 16.4257 54.7157 15.0766C53.9368 13.7275 52.2116 13.2652 50.8625 14.0441C49.5134 14.8231 49.0511 16.5482 49.83 17.8973C50.609 19.2465 52.3341 19.7087 53.6832 18.9298Z" fill="#FF296D"/>
<path d="M45.3141 8.50193C46.093 7.1528 45.6308 5.42766 44.2816 4.64874C42.9325 3.86982 41.2074 4.33207 40.4284 5.6812C39.6495 7.03033 40.1118 8.75547 41.4609 9.53439C42.81 10.3133 44.5352 9.85106 45.3141 8.50193Z" fill="#FF296D"/>
<path d="M52.8809 29.106C52.8809 33.7315 51.5092 38.2532 48.9394 42.0992C46.3696 45.9451 42.7171 48.9427 38.4436 50.7128C34.1702 52.4829 29.4678 52.9461 24.9312 52.0437C20.3945 51.1413 16.2274 48.9139 12.9566 45.6432C9.68587 42.3724 7.45846 38.2052 6.55607 33.6686C5.65367 29.1319 6.11681 24.4296 7.88693 20.1561C9.65704 15.8827 12.6546 12.2301 16.5006 9.66032C20.3466 7.09052 24.8683 5.71889 29.4938 5.71889H32.3002V0.105988H29.4938C23.7581 0.105988 18.1513 1.80681 13.3823 4.99337C8.61323 8.17993 4.89622 12.7091 2.70128 18.0082C0.50634 23.3072 -0.067957 29.1381 1.05101 34.7636C2.16999 40.389 4.93197 45.5564 8.98769 49.6121C13.0434 53.6678 18.2107 56.4298 23.8362 57.5487C29.4616 58.6677 35.2925 58.0934 40.5916 55.8985C45.8907 53.7035 50.4198 49.9865 53.6064 45.2175C56.793 40.4485 58.4938 34.8416 58.4938 29.106V26.2995H52.8809V29.106Z" fill="#FF296D"/>
</svg>
